PathFileType	4	(X/Y/Z)	 Jog05.trc
DataRate	CameraRate	NumFrames	NumMarkers	Units	OrigDataRate	OrigDataStartFrame	OrigNumFrames
250	250	5	31	m	250	407	651
Frame#	Time	RASI			LASI			RAIC			LAIC			RTH2			RTB3			RMT1			RMT5			LTH1			LTH2			LTH3			LCAL			LMT1			LMT5			CLAV			STRN			RACR			LACR			RTH1			RTH3			LTB1			LTB2			C7			LPSI			T10			RPSI			LTB3			RTB1			RCAL			RTB2			C_30			
		X1	Y1	Z1	X2	Y2	Z2	X3	Y3	Z3	X4	Y4	Z4	X5	Y5	Z5	X6	Y6	Z6	X7	Y7	Z7	X8	Y8	Z8	X9	Y9	Z9	X10	Y10	Z10	X11	Y11	Z11	X12	Y12	Z12	X13	Y13	Z13	X14	Y14	Z14	X15	Y15	Z15	X16	Y16	Z16	X17	Y17	Z17	X18	Y18	Z18	X19	Y19	Z19	X20	Y20	Z20	X21	Y21	Z21	X22	Y22	Z22	X23	Y23	Z23	X24	Y24	Z24	X25	Y25	Z25	X26	Y26	Z26	X27	Y27	Z27	X28	Y28	Z28	X29	Y29	Z29	X30	Y30	Z30	X31	Y31	Z31	
407	1.6280	2.095360	0.909493	0.437583	2.065373	0.930372	0.207532	2.039880	1.007544	0.484268	1.998601	1.015100	0.182061	2.060815	0.691079	0.491364	1.755265	0.448948	0.433079	1.536165	0.396758	0.437173	1.526203	0.420965	0.527467	2.040909	0.813819	0.152406	2.122809	0.755506	0.174587	2.112832	0.650960	0.172375	2.013747	0.041237	0.318094	2.236594	0.046292	0.336059	2.223001	0.046497	0.247102	2.110119	1.368735	0.298157	2.138932	1.146100	0.302079	2.084788	1.418797	0.481138	2.035643	1.398798	0.129271	2.010966	0.778978	0.510860	2.009280	0.602837	0.496562	2.194428	0.360022	0.304938	2.187669	0.283981	0.261244	2.001965	1.454927	0.307541	1.900292	0.986689	0.322522	1.923463	1.177559	0.344597	1.910464	0.979214	0.394501	2.153788	0.229638	0.318307	1.884271	0.407102	0.417502	1.600547	0.598630	0.425807	1.828071	0.425835	0.477582	2.012274	0.417202	0.358240	
408	1.6320	2.109757	0.905020	0.435966	2.078302	0.926137	0.205933	2.054837	1.002500	0.484219	2.012599	1.010728	0.181586	2.079154	0.689345	0.491828	1.781540	0.447927	0.432937	1.562601	0.396212	0.437202	1.552893	0.420910	0.527472	2.052715	0.808302	0.150845	2.134762	0.750166	0.173568	2.124841	0.645893	0.172859	2.014192	0.042023	0.318532	2.237055	0.045403	0.336686	2.223314	0.046110	0.247702	2.126219	1.364685	0.297744	2.153807	1.141553	0.302517	2.098973	1.415117	0.481639	2.053113	1.394552	0.127025	2.027195	0.776107	0.510492	2.029778	0.599932	0.497243	2.203436	0.359162	0.306597	2.196823	0.282874	0.263590	2.018027	1.452317	0.306090	1.914078	0.982731	0.323125	1.937931	1.174928	0.343166	1.924260	0.974555	0.395175	2.159792	0.229804	0.319302	1.910211	0.405124	0.418287	1.626321	0.598188	0.424585	1.854067	0.424429	0.477861	2.038000	0.414549	0.359680	
409	1.6360	2.124005	0.900717	0.435201	2.092335	0.922370	0.204158	2.069756	0.997513	0.483934	2.027004	1.006636	0.181182	2.097507	0.687898	0.492324	1.807849	0.446663	0.432817	1.589276	0.394595	0.437454	1.579694	0.420030	0.527320	2.064409	0.803486	0.149604	2.147416	0.745804	0.173037	2.136661	0.641243	0.173186	2.014390	0.042572	0.318601	2.237240	0.044403	0.337297	2.223477	0.045894	0.248368	2.142195	1.360890	0.297386	2.168633	1.137078	0.302935	2.113065	1.411523	0.482188	2.070665	1.390390	0.124883	2.043431	0.773428	0.510174	2.050500	0.597314	0.497870	2.211309	0.357011	0.307894	2.203675	0.281120	0.264558	2.034243	1.450288	0.304796	1.927729	0.979098	0.323648	1.952297	1.172669	0.341757	1.938084	0.970084	0.395683	2.165144	0.228789	0.319733	1.936482	0.403392	0.419136	1.651896	0.597188	0.423303	1.879360	0.422953	0.477989	2.063705	0.412593	0.360116	
410	1.6400	2.138250	0.896578	0.434104	2.106158	0.918757	0.202306	2.084288	0.992597	0.483945	2.040333	1.002593	0.180584	2.115949	0.686793	0.492868	1.833961	0.445184	0.432965	1.616116	0.392646	0.437279	1.606638	0.418455	0.527116	2.076161	0.799407	0.148914	2.158811	0.741484	0.172742	2.148223	0.637133	0.173816	2.014545	0.042960	0.318598	2.237674	0.044103	0.337190	2.223951	0.045627	0.248109	2.158087	1.357354	0.297108	2.183497	1.132680	0.303469	2.127245	1.408094	0.482698	2.088205	1.386414	0.123025	2.059718	0.770990	0.509839	2.070961	0.595076	0.498150	2.219687	0.353803	0.308925	2.209019	0.278647	0.264628	2.050655	1.448760	0.303577	1.941011	0.975756	0.323949	1.966739	1.170625	0.340257	1.952994	0.965846	0.395733	2.169968	0.226793	0.319889	1.961663	0.402634	0.419509	1.677198	0.595586	0.422131	1.905959	0.421971	0.478537	2.090201	0.410844	0.361365	
411	1.6440	2.152636	0.892754	0.432915	2.119350	0.914957	0.200472	2.099345	0.988109	0.483660	2.054147	0.998821	0.179983	2.134443	0.685985	0.493379	1.860471	0.443717	0.432907	1.643305	0.389979	0.437138	1.633682	0.416128	0.526824	2.087996	0.796046	0.148530	2.170636	0.737753	0.172155	2.159328	0.633562	0.174470	2.015107	0.043134	0.318701	2.237805	0.043768	0.337034	2.223827	0.045100	0.247952	2.173924	1.354087	0.296902	2.198401	1.128557	0.303886	2.141501	1.404895	0.483193	2.105783	1.382713	0.121446	2.075969	0.768876	0.509373	2.091760	0.593209	0.498906	2.227212	0.349867	0.309065	2.213889	0.275337	0.264182	2.066667	1.447811	0.302708	1.954940	0.972950	0.324301	1.981264	1.168763	0.338868	1.967209	0.962412	0.396039	2.174340	0.224186	0.320018	1.989295	0.400663	0.420264	1.702152	0.593478	0.420849	1.932272	0.420870	0.478839	2.115970	0.410499	0.362362	
